<svg xmlns="http://www.w3.org/2000/svg" xmlns:xlink="http://www.w3.org/1999/xlink" version="1.1" style="" xml:space="preserve" width="445.0802919809653" height="281.54014599048264"><rect id="backgroundrect" width="100%" height="100%" x="0" y="0" fill="none" stroke="none" style="" class=""/>
	
<g class="currentLayer" style=""><title>Layer 1</title><path d="M434.25200047683717,31.977001181125644 l-21.409,-21.416 c-7.4190000000000005,-7.04 -16.084,-10.561 -25.975,-10.561 c-10.095,0 -18.657,3.521 -25.7,10.561 L222.41000047683715,149.32300118112565 L83.65300047683716,10.565001181125638 c-7.042,-7.04 -15.606,-10.561 -25.697,-10.561 c-9.896,0 -18.559,3.521 -25.979,10.561 l-21.128,21.416 C3.6150004768371584,39.21000118112565 4.76837158203125e-7,47.87300118112563 4.76837158203125e-7,57.96200118112563 c0,10.277 3.619,18.842 10.848,25.693 l185.864,185.865 c6.855,7.23 15.416,10.848 25.697,10.848 c10.088,0 18.75,-3.617 25.977,-10.848 l185.865,-185.865 c7.043,-7.044 10.567,-15.608 10.567,-25.693 C444.8190004768372,48.06100118112565 441.2950004768372,39.403001181125646 434.25200047683717,31.977001181125644 z" id="svg_1" class="" fill-opacity="1" fill="#2783e5"/></g></svg>